<?xml version="1.0" encoding="UTF-8" standalone="no"?>
<!-- Created with Inkscape (http://www.inkscape.org/) -->

<svg
   width="95.612457mm"
   height="31.19422mm"
   viewBox="0 0 95.612457 31.19422"
   version="1.1"
   id="svg1"
   inkscape:version="1.3.2 (091e20e, 2023-11-25, custom)"
   sodipodi:docname="SpotiGetLogo.svg"
   xml:space="preserve"
   xmlns:inkscape="http://www.inkscape.org/namespaces/inkscape"
   xmlns:sodipodi="http://sodipodi.sourceforge.net/DTD/sodipodi-0.dtd"
   xmlns="http://www.w3.org/2000/svg"
   xmlns:svg="http://www.w3.org/2000/svg"><sodipodi:namedview
     id="namedview1"
     pagecolor="#000000"
     bordercolor="#000000"
     borderopacity="0.25"
     inkscape:showpageshadow="2"
     inkscape:pageopacity="0.0"
     inkscape:pagecheckerboard="0"
     inkscape:deskcolor="#d1d1d1"
     inkscape:document-units="mm"
     inkscape:zoom="2.1089995"
     inkscape:cx="176.86111"
     inkscape:cy="196.06453"
     inkscape:window-width="1920"
     inkscape:window-height="1051"
     inkscape:window-x="-9"
     inkscape:window-y="-9"
     inkscape:window-maximized="1"
     inkscape:current-layer="layer1" /><defs
     id="defs1" /><g
     inkscape:label="Vrstva 1"
     inkscape:groupmode="layer"
     id="layer1"
     transform="translate(-1.5530498,-30.328563)"><text
       xml:space="preserve"
       style="font-size:30.1678px;fill:#ffffff;fill-opacity:1;stroke:#ffffff;stroke-width:1.4654;stroke-linejoin:round;stroke-dasharray:none;stroke-opacity:1"
       x="0.99464542"
       y="52.466095"
       id="text1"
       transform="scale(0.97175129,1.0290699)"><tspan
         sodipodi:role="line"
         id="tspan1"
         style="font-style:normal;font-variant:normal;font-weight:normal;font-stretch:normal;font-family:Prompt;-inkscape-font-specification:Prompt;fill:#ffffff;fill-opacity:1;stroke:#ffffff;stroke-width:1.4654;stroke-dasharray:none;stroke-opacity:1"
         x="0.99464542"
         y="52.466095">Spoti</tspan></text><g
       style="fill:#1db954;fill-opacity:1;stroke:#1db954;stroke-opacity:1"
       id="g1"
       transform="matrix(0.7878856,0,0,0.7878856,73.538389,30.722505)"
       inkscape:label="Download"><g
         id="g17"
         style="fill:#1db954;fill-opacity:1;stroke:#1db954;stroke-opacity:1">
	<path
   d="m 25.462,19.105 v 6.848 H 4.515 V 19.105 H 0.489 v 8.861 c 0,1.111 0.9,2.012 2.016,2.012 h 24.967 c 1.115,0 2.016,-0.9 2.016,-2.012 v -8.861 z"
   id="path1"
   style="fill:#1db954;fill-opacity:1;stroke:#1db954;stroke-opacity:1" />
	<path
   d="M 14.62,18.426 8.856,11.461 c 0,0 -0.877,-0.828 0.074,-0.828 0.951,0 3.248,0 3.248,0 0,0 0,-0.557 0,-1.416 0,-2.449 0,-6.906 0,-8.723 0,0 -0.129,-0.494 0.615,-0.494 0.75,0 4.035,0 4.572,0 0.536,0 0.524,0.416 0.524,0.416 0,1.762 0,6.373 0,8.742 0,0.768 0,1.266 0,1.266 0,0 1.842,0 2.998,0 1.154,0 0.285,0.867 0.285,0.867 0,0 -4.904,6.51 -5.588,7.193 -0.492,0.495 -0.964,-0.058 -0.964,-0.058 z"
   id="path2"
   style="fill:#1db954;fill-opacity:1;stroke:#1db954;stroke-opacity:1" />
	<g
   id="g2"
   style="fill:#1db954;fill-opacity:1;stroke:#1db954;stroke-opacity:1">
	</g>
	<g
   id="g3"
   style="fill:#1db954;fill-opacity:1;stroke:#1db954;stroke-opacity:1">
	</g>
	<g
   id="g4"
   style="fill:#1db954;fill-opacity:1;stroke:#1db954;stroke-opacity:1">
	</g>
	<g
   id="g5"
   style="fill:#1db954;fill-opacity:1;stroke:#1db954;stroke-opacity:1">
	</g>
	<g
   id="g6"
   style="fill:#1db954;fill-opacity:1;stroke:#1db954;stroke-opacity:1">
	</g>
	<g
   id="g7"
   style="fill:#1db954;fill-opacity:1;stroke:#1db954;stroke-opacity:1">
	</g>
	<g
   id="g8"
   style="fill:#1db954;fill-opacity:1;stroke:#1db954;stroke-opacity:1">
	</g>
	<g
   id="g9"
   style="fill:#1db954;fill-opacity:1;stroke:#1db954;stroke-opacity:1">
	</g>
	<g
   id="g10"
   style="fill:#1db954;fill-opacity:1;stroke:#1db954;stroke-opacity:1">
	</g>
	<g
   id="g11"
   style="fill:#1db954;fill-opacity:1;stroke:#1db954;stroke-opacity:1">
	</g>
	<g
   id="g12"
   style="fill:#1db954;fill-opacity:1;stroke:#1db954;stroke-opacity:1">
	</g>
	<g
   id="g13"
   style="fill:#1db954;fill-opacity:1;stroke:#1db954;stroke-opacity:1">
	</g>
	<g
   id="g14"
   style="fill:#1db954;fill-opacity:1;stroke:#1db954;stroke-opacity:1">
	</g>
	<g
   id="g15"
   style="fill:#1db954;fill-opacity:1;stroke:#1db954;stroke-opacity:1">
	</g>
	<g
   id="g16"
   style="fill:#1db954;fill-opacity:1;stroke:#1db954;stroke-opacity:1">
	</g>
</g></g></g></svg>
